<svg width="20" height="19" viewBox="0 0 20 19" fill="none" xmlns="http://www.w3.org/2000/svg">
<path d="M13.7073 2.58398C14.7123 2.58398 15.6763 2.98367 16.387 3.69434C17.0976 4.40502 17.4973 5.36896 17.4973 6.37402C17.4973 7.37911 17.0977 8.34301 16.387 9.05371C15.6763 9.76441 14.7124 10.1641 13.7073 10.1641C12.7022 10.164 11.7383 9.7644 11.0276 9.05371C10.3169 8.34302 9.91724 7.37908 9.91724 6.37402C9.91725 5.36896 10.3169 4.40502 11.0276 3.69434C11.7383 2.98365 12.7022 2.584 13.7073 2.58398Z" stroke="white" stroke-width="0.909067"/>
<path d="M12.2833 10.4922L3.93274 16.8125H3.93176C3.57367 17.0848 3.05646 17.0421 2.74231 16.709C2.43111 16.379 2.41725 15.8622 2.71106 15.5146L2.71204 15.5156L9.50696 7.54785L12.2833 10.4922Z" stroke="white" stroke-width="0.909067"/>
<path d="M11.7025 2.70067L17.35 8.69483C17.725 9.09254 17.708 9.71753 17.3103 10.0868C16.9125 10.4618 16.2932 10.4448 15.9182 10.0471L10.2707 4.0529C9.89568 3.65519 9.91273 3.03589 10.3104 2.6609C10.7082 2.28591 11.3275 2.30295 11.7025 2.70067ZM9.66785 10.9533C9.66785 11.1748 9.57985 11.3872 9.42322 11.5439C9.26659 11.7005 9.05415 11.7885 8.83264 11.7885C8.61113 11.7885 8.39869 11.7005 8.24206 11.5439C8.08543 11.3872 7.99744 11.1748 7.99744 10.9533C7.99744 10.7318 8.08543 10.5193 8.24206 10.3627C8.39869 10.2061 8.61113 10.1181 8.83264 10.1181C9.05415 10.1181 9.26659 10.2061 9.42322 10.3627C9.57985 10.5193 9.66785 10.7318 9.66785 10.9533Z" fill="white"/>
</svg>
