<svg width="20" height="19" viewBox="0 0 20 19" fill="none" xmlns="http://www.w3.org/2000/svg">
<g clip-path="url(#clip0_945_20607)">
<path d="M7.14746 11.9717L9.23438 15.8496L9.23926 15.8594C9.24143 15.8632 9.24279 15.8677 9.24316 15.8721C9.24347 15.8764 9.24365 15.8807 9.24219 15.8848C9.24067 15.8889 9.2375 15.8924 9.23438 15.8955C9.23128 15.8986 9.22773 15.9008 9.22363 15.9023L9.21387 15.9072L7.10938 16.749H7.1084C7.09566 16.7541 7.08795 16.755 7.08496 16.7549C7.08188 16.7548 7.08023 16.754 7.08008 16.7539C7.0797 16.7537 7.07866 16.7529 7.07715 16.751C7.07541 16.7488 7.07085 16.7421 7.06738 16.7285V16.7275L5.79004 11.7109L7.14746 11.9717ZM16.749 1.75488C16.8904 1.75737 17.0857 1.83892 17.3193 2.11523C17.5511 2.38945 17.7797 2.81062 17.9805 3.36816C18.3808 4.47971 18.6367 6.04121 18.6367 7.78613C18.6367 9.53157 18.3806 11.0921 17.9805 12.2031C17.7797 12.7605 17.5511 13.1811 17.3193 13.4551C17.0858 13.731 16.8909 13.8129 16.749 13.8154V13.8164H15.4473C15.4336 13.8068 15.4191 13.7962 15.4033 13.7852C15.2947 13.709 15.1348 13.5999 14.9287 13.4668C14.5167 13.2008 13.9171 12.837 13.1602 12.4414C11.7075 11.6822 9.66767 10.8021 7.25781 10.2725C7.14141 9.56121 7.06935 8.73031 7.06934 7.78613C7.06934 6.84119 7.14123 6.01017 7.25781 5.29785C9.66682 4.76826 11.7065 3.88999 13.1592 3.13086C13.9165 2.73508 14.5166 2.37056 14.9287 2.10449C15.1348 1.97143 15.2946 1.86323 15.4033 1.78711C15.4195 1.77577 15.4343 1.76475 15.4482 1.75488H16.749ZM16.2656 1.82812C16.0376 1.82812 15.8538 1.93925 15.751 2.01367C15.6372 2.09596 15.5451 2.19101 15.4873 2.25586C15.212 2.56333 14.97 3.0083 14.7754 3.52246C14.3368 4.6748 14.1055 6.19096 14.1055 7.78711C14.1055 9.38391 14.3381 10.8988 14.7754 12.0518L14.7764 12.0527C14.9716 12.5641 15.2118 13.0097 15.4873 13.3174L15.4883 13.3184C15.545 13.3813 15.6373 13.4761 15.751 13.5586C15.8536 13.633 16.0373 13.7451 16.2656 13.7451C16.4936 13.7451 16.6774 13.634 16.7803 13.5596C16.8945 13.4769 16.9862 13.3803 17.0439 13.3154C17.3191 13.0088 17.5607 12.5645 17.7549 12.0518C18.1936 10.8994 18.4258 9.38341 18.4258 7.78711C18.4258 6.19026 18.1922 4.67544 17.7549 3.52246V3.52148C17.5596 3.00894 17.3194 2.56362 17.0439 2.25586L17.043 2.25488L16.9326 2.1416C16.8882 2.09964 16.8363 2.05496 16.7793 2.01367C16.6894 1.94859 16.538 1.85527 16.3486 1.83301L16.2656 1.82812ZM5.04883 5.66211C4.96917 6.3415 4.92689 7.05414 4.92676 7.78223C4.92404 8.49228 4.96637 9.20148 5.0498 9.90625C4.41776 9.83435 3.80389 9.79395 3.08594 9.79395H2.15527L1.36426 8.44238V7.12598L2.15527 5.77539H3.08594C3.80357 5.77539 4.41708 5.73395 5.04883 5.66211ZM16.2656 6.40723C16.3907 6.75811 16.4678 7.24433 16.4678 7.78613C16.4677 8.3272 16.3904 8.81236 16.2656 9.16309C16.1408 8.81235 16.0635 8.32726 16.0635 7.78613C16.0635 7.24426 16.1405 6.75812 16.2656 6.40723Z" stroke="white" stroke-width="0.909067"/>
</g>
<defs>
<clipPath id="clip0_945_20607">
<rect width="18.1813" height="18.1813" fill="white" transform="translate(0.910156 0.165039)"/>
</clipPath>
</defs>
</svg>
