<svg width="21" height="21" viewBox="0 0 21 21" fill="none" xmlns="http://www.w3.org/2000/svg">
<path d="M11.6121 5.81141V1.36697C11.6121 1.05216 11.7188 0.788452 11.9321 0.575859C12.1454 0.363267 12.4091 0.2566 12.7232 0.255859H19.3899C19.7047 0.255859 19.9688 0.362526 20.1821 0.575859C20.3954 0.789193 20.5017 1.0529 20.501 1.36697V5.81141C20.501 6.12623 20.3943 6.3903 20.181 6.60364C19.9676 6.81697 19.7039 6.92327 19.3899 6.92252H12.7232C12.4084 6.92252 12.1447 6.81586 11.9321 6.60252C11.7195 6.38919 11.6128 6.12549 11.6121 5.81141ZM0.500977 10.2559V1.36697C0.500977 1.05216 0.607643 0.788452 0.820977 0.575859C1.03431 0.363267 1.29801 0.2566 1.61209 0.255859H8.27875C8.59357 0.255859 8.85764 0.362526 9.07098 0.575859C9.28431 0.789193 9.3906 1.0529 9.38986 1.36697V10.2559C9.38986 10.5707 9.2832 10.8347 9.06986 11.0481C8.85653 11.2614 8.59283 11.3677 8.27875 11.367H1.61209C1.29727 11.367 1.03357 11.2603 0.820977 11.047C0.608384 10.8336 0.501717 10.5699 0.500977 10.2559ZM11.6121 19.1447V10.2559C11.6121 9.94104 11.7188 9.67734 11.9321 9.46475C12.1454 9.25215 12.4091 9.14549 12.7232 9.14475H19.3899C19.7047 9.14475 19.9688 9.25141 20.1821 9.46475C20.3954 9.67808 20.5017 9.94178 20.501 10.2559V19.1447C20.501 19.4596 20.3943 19.7236 20.181 19.937C19.9676 20.1503 19.7039 20.2566 19.3899 20.2559H12.7232C12.4084 20.2559 12.1447 20.1492 11.9321 19.9359C11.7195 19.7225 11.6128 19.4588 11.6121 19.1447ZM0.500977 19.1447V14.7003C0.500977 14.3855 0.607643 14.1218 0.820977 13.9092C1.03431 13.6966 1.29801 13.5899 1.61209 13.5892H8.27875C8.59357 13.5892 8.85764 13.6959 9.07098 13.9092C9.28431 14.1225 9.3906 14.3862 9.38986 14.7003V19.1447C9.38986 19.4596 9.2832 19.7236 9.06986 19.937C8.85653 20.1503 8.59283 20.2566 8.27875 20.2559H1.61209C1.29727 20.2559 1.03357 20.1492 0.820977 19.9359C0.608384 19.7225 0.501717 19.4588 0.500977 19.1447ZM2.7232 8.94475C2.7232 9.0552 2.81274 9.14475 2.9232 9.14475H6.96764C7.0781 9.14475 7.16764 9.0552 7.16764 8.94475V2.67808C7.16764 2.56762 7.0781 2.47808 6.96764 2.47808H2.9232C2.81274 2.47808 2.7232 2.56762 2.7232 2.67808V8.94475ZM13.8343 17.8336C13.8343 17.9441 13.9239 18.0336 14.0343 18.0336H18.0788C18.1892 18.0336 18.2788 17.9441 18.2788 17.8336V11.567C18.2788 11.4565 18.1892 11.367 18.0788 11.367H14.0343C13.9239 11.367 13.8343 11.4565 13.8343 11.567V17.8336ZM13.8343 4.5003C13.8343 4.61076 13.9239 4.7003 14.0343 4.7003H18.0788C18.1892 4.7003 18.2788 4.61076 18.2788 4.5003V2.67808C18.2788 2.56762 18.1892 2.47808 18.0788 2.47808H14.0343C13.9239 2.47808 13.8343 2.56762 13.8343 2.67808V4.5003ZM2.7232 17.8336C2.7232 17.9441 2.81274 18.0336 2.9232 18.0336H6.96764C7.0781 18.0336 7.16764 17.9441 7.16764 17.8336V16.0114C7.16764 15.901 7.0781 15.8114 6.96764 15.8114H2.9232C2.81274 15.8114 2.7232 15.901 2.7232 16.0114V17.8336Z" fill="white"/>
</svg>
