<svg width="17" height="17" viewBox="0 0 17 17" fill="none" xmlns="http://www.w3.org/2000/svg">
<g clip-path="url(#clip0_1092_4997)">
<path d="M8.15974 7.00234C8.26974 6.67234 8.73574 6.67234 8.84574 7.00234L9.49074 8.93934C9.63271 9.36514 9.87191 9.75202 10.1894 10.0693C10.5068 10.3866 10.8939 10.6256 11.3197 10.7673L13.2557 11.4123C13.5857 11.5223 13.5857 11.9883 13.2557 12.0983L11.3187 12.7433C10.8929 12.8853 10.5061 13.1245 10.1888 13.442C9.87147 13.7594 9.63248 14.1465 9.49074 14.5723L8.84574 16.5083C8.82202 16.5806 8.77609 16.6435 8.7145 16.6881C8.6529 16.7328 8.57879 16.7568 8.50274 16.7568C8.42669 16.7568 8.35258 16.7328 8.29098 16.6881C8.22939 16.6435 8.18346 16.5806 8.15974 16.5083L7.51474 14.5713C7.37287 14.1456 7.13382 13.7588 6.81653 13.4415C6.49925 13.1243 6.11243 12.8852 5.68674 12.7433L3.74974 12.0983C3.67748 12.0746 3.61455 12.0287 3.56994 11.9671C3.52533 11.9055 3.50131 11.8314 3.50131 11.7553C3.50131 11.6793 3.52533 11.6052 3.56994 11.5436C3.61455 11.482 3.67748 11.4361 3.74974 11.4123L5.68674 10.7673C6.11243 10.6255 6.49925 10.3864 6.81653 10.0691C7.13382 9.75185 7.37287 9.36503 7.51474 8.93934L8.15974 7.00234ZM4.29674 1.90334C4.31108 1.86003 4.3387 1.82235 4.37568 1.79564C4.41266 1.76893 4.45712 1.75455 4.50274 1.75455C4.54836 1.75455 4.59282 1.76893 4.6298 1.79564C4.66678 1.82235 4.6944 1.86003 4.70874 1.90334L5.09574 3.06534C5.26874 3.58334 5.67474 3.98934 6.19274 4.16234L7.35474 4.54934C7.39805 4.56368 7.43573 4.5913 7.46244 4.62828C7.48915 4.66526 7.50353 4.70972 7.50353 4.75534C7.50353 4.80096 7.48915 4.84542 7.46244 4.8824C7.43573 4.91938 7.39805 4.947 7.35474 4.96134L6.19274 5.34834C5.93711 5.43318 5.70483 5.57653 5.51438 5.76698C5.32393 5.95743 5.18058 6.18971 5.09574 6.44534L4.70874 7.60734C4.6944 7.65065 4.66678 7.68833 4.6298 7.71504C4.59282 7.74175 4.54836 7.75613 4.50274 7.75613C4.45712 7.75613 4.41266 7.74175 4.37568 7.71504C4.3387 7.68833 4.31108 7.65065 4.29674 7.60734L3.90974 6.44534C3.8249 6.18971 3.68155 5.95743 3.4911 5.76698C3.30065 5.57653 3.06837 5.43318 2.81274 5.34834L1.65074 4.96134C1.60743 4.947 1.56975 4.91938 1.54304 4.8824C1.51633 4.84542 1.50195 4.80096 1.50195 4.75534C1.50195 4.70972 1.51633 4.66526 1.54304 4.62828C1.56975 4.5913 1.60743 4.56368 1.65074 4.54934L2.81274 4.16234C3.06837 4.0775 3.30065 3.93415 3.4911 3.7437C3.68155 3.55325 3.8249 3.32096 3.90974 3.06534L4.29674 1.90334ZM11.3657 0.854339C11.3756 0.825865 11.3941 0.801175 11.4187 0.7837C11.4432 0.766226 11.4726 0.756836 11.5027 0.756836C11.5329 0.756836 11.5623 0.766226 11.5868 0.7837C11.6114 0.801175 11.6299 0.825865 11.6397 0.854339L11.8977 1.62834C12.0127 1.97434 12.2837 2.24534 12.6297 2.36034L13.4037 2.61834C13.4322 2.62821 13.4569 2.64671 13.4744 2.67126C13.4919 2.69581 13.5012 2.7252 13.5012 2.75534C13.5012 2.78548 13.4919 2.81486 13.4744 2.83942C13.4569 2.86397 13.4322 2.88247 13.4037 2.89234L12.6297 3.15034C12.4594 3.20734 12.3046 3.30313 12.1776 3.43016C12.0505 3.55718 11.9547 3.71198 11.8977 3.88234L11.6397 4.65634C11.6299 4.68481 11.6114 4.7095 11.5868 4.72698C11.5623 4.74445 11.5329 4.75384 11.5027 4.75384C11.4726 4.75384 11.4432 4.74445 11.4187 4.72698C11.3941 4.7095 11.3756 4.68481 11.3657 4.65634L11.1077 3.88234C11.0507 3.71198 10.955 3.55718 10.8279 3.43016C10.7009 3.30313 10.5461 3.20734 10.3757 3.15034L9.60274 2.89234C9.57427 2.88247 9.54958 2.86397 9.5321 2.83942C9.51463 2.81486 9.50524 2.78548 9.50524 2.75534C9.50524 2.7252 9.51463 2.69581 9.5321 2.67126C9.54958 2.64671 9.57427 2.62821 9.60274 2.61834L10.3767 2.36034C10.7227 2.24534 10.9937 1.97434 11.1087 1.62834L11.3657 0.854339Z" fill="#383838"/>
</g>
<defs>
<clipPath id="clip0_1092_4997">
<rect width="16" height="16" fill="white" transform="translate(0.5 0.756836)"/>
</clipPath>
</defs>
</svg>
