<svg width="12" height="13" viewBox="0 0 12 13" fill="none" xmlns="http://www.w3.org/2000/svg">
<path d="M8.6107 5.54711C8.34346 5.54711 8.11427 5.4537 7.92314 5.26689C7.732 5.08008 7.636 4.84916 7.63514 4.57413V1.72981C7.63514 1.45392 7.73027 1.22278 7.92054 1.0364C8.11168 0.850025 8.34087 0.756836 8.60811 0.756836C8.88443 0.756836 9.11578 0.850025 9.30216 1.0364C9.48854 1.22278 9.58151 1.45392 9.58108 1.72981V4.57413C9.58108 4.84959 9.48811 5.08051 9.30216 5.26689C9.11622 5.45327 8.88573 5.54646 8.6107 5.54646M2.44595 12.7568C1.37123 12.7568 0.5 11.8856 0.5 10.8109V3.0271C0.5 1.95239 1.37123 1.08116 2.44595 1.08116H5.68919C5.86831 1.08116 6.01351 1.22637 6.01351 1.40548C6.01351 1.5846 5.86831 1.72981 5.68919 1.72981H3.09459C2.01988 1.72981 1.14865 2.60104 1.14865 3.67575V6.919V10.1622C1.14865 11.237 2.01988 12.1082 3.09459 12.1082H7.54757C7.95417 12.1082 8.28378 11.7786 8.28378 11.372V10.9601C8.28378 10.781 8.42899 10.6358 8.60811 10.6358C8.78723 10.6358 8.93243 10.781 8.93243 10.9601V11.6963C8.93243 12.282 8.45761 12.7568 7.87189 12.7568H2.44595ZM3.16919 10.6358C2.94887 10.6358 2.77027 10.4572 2.77027 10.2368C2.77027 10.0165 2.94887 9.83792 3.16919 9.83792H6.26324C6.48356 9.83792 6.66216 10.0165 6.66216 10.2368C6.66216 10.4572 6.48356 10.6358 6.26324 10.6358H3.16919ZM3.09459 8.68981C2.91548 8.68981 2.77027 8.5446 2.77027 8.36548C2.77027 8.18636 2.91548 8.04116 3.09459 8.04116H5.04054C5.21966 8.04116 5.36487 8.18636 5.36487 8.36548C5.36487 8.5446 5.21966 8.68981 5.04054 8.68981H3.09459ZM8.93243 8.86494C8.93243 9.04406 8.78723 9.18927 8.60811 9.18927C8.42899 9.18927 8.28378 9.04406 8.28378 8.86494V8.3319C8.28378 7.89005 7.94477 7.50918 7.5384 7.33573C7.14677 7.16856 6.75934 6.94223 6.50791 6.78503C6.31813 6.66637 6.1588 6.50752 6.04176 6.31674C5.83507 5.97983 5.51337 5.4 5.40331 4.89551C5.36512 4.72051 5.51007 4.57413 5.68919 4.57413C5.86831 4.57413 6.01075 4.72007 6.03488 4.89756C6.10654 5.42462 6.35844 5.87465 6.7906 6.24765C7.30865 6.69478 7.91405 6.91857 8.60681 6.919C9.31168 6.919 9.92076 6.69521 10.4341 6.24765C10.8615 5.87502 11.1107 5.42522 11.1816 4.89823C11.2054 4.72071 11.3479 4.57478 11.527 4.57478C11.7061 4.57478 11.8534 4.72044 11.8352 4.89864C11.7678 5.55989 11.4893 6.12934 10.9997 6.607C10.6193 6.97808 10.1845 7.24205 9.69531 7.39889C9.27442 7.53383 8.93243 7.89044 8.93243 8.33244V8.86494Z" fill="black"/>
</svg>
